<?xml version="1.0" encoding="utf-8"?>
<!-- Generator: Adobe Illustrator 16.0.0, SVG Export Plug-In . SVG Version: 6.00 Build 0)  -->
<!DOCTYPE svg PUBLIC "-//W3C//DTD SVG 1.1//EN" "http://www.w3.org/Graphics/SVG/1.1/DTD/svg11.dtd">
<svg version="1.1" xmlns="http://www.w3.org/2000/svg" xmlns:xlink="http://www.w3.org/1999/xlink" x="0px" y="0px" width="609.1px"
	 height="289.3px" viewBox="0 0 609.1 289.3" style="enable-background:new 0 0 609.1 289.3;" xml:space="preserve">
<style type="text/css">
<![CDATA[
	.st0{fill-rule:evenodd;clip-rule:evenodd;fill:none;}
	.st1{fill:#231F20;}
	.st2{fill:#FFFFFF;}
	.st3{fill-rule:evenodd;clip-rule:evenodd;fill:#231F20;}
	.st4{fill:none;}
	.st5{fill-rule:evenodd;clip-rule:evenodd;fill:#FFFFFF;}
	.st6{display:none;}
]]>
</style>
<g id="Layer_1">
	<path class="st2" d="M78.2,820.6c0-167.3,0-334.7,0-502c222.7,0,445.3,0,668,0c0,167.3,0,334.7,0,502
		C523.5,820.6,300.8,820.6,78.2,820.6z M186.1,412.1c-0.2,0.5-0.3,0.9-0.5,1.3c-15.9-1-27.4,17.2-20.9,32.4
		c5.3,12.4,14.5,21.1,24.9,29.1c5,3.8,10.2,7.4,12.7,13.7c3.1,7.9-1,16-9.4,17c-12,1.5-21.1-3.7-28.3-13c-1.1-1.4-3-3-4.5-3
		c-1.2,0-3.2,2.4-3.2,3.8c-0.3,4.7-0.4,9.5,0.5,14.1c1.3,7.4,6.6,12.7,12.7,15.8c13.1,6.7,27.2,9.1,41.9,6.1c2.4-0.5,5.2-2,6.5-4
		c5.7-8.3,8.5-18.2,8-27.8c-1-16.4-10.1-28.6-24.6-36.7c-3.5-2-7.6-3.9-7.2-9.1c0.5-6.4,4.4-11.8,9.5-13.4c3.6-1.1,7.1-2.7,10.7-3.8
		c2.2-0.7,4.5-0.8,6.7-1.4c1.8-0.4,4.5-0.6,5.2-1.8c0.7-1.2,0-4-1-5.3c-1.1-1.5-3.2-2.5-5.1-3.1c-2.8-0.9-5.8-0.9-8.5-1.9
		C203.4,418.4,194.8,415.2,186.1,412.1z M169.6,636.2c0.6,4,1.1,8.2,1.9,12.5c2.1,10.8,9.8,14.7,19.6,9.9c3.7-1.8,4.6-7.4,2.7-11.1
		c-1.9-3.7-3.6-7.9-3.9-12c-0.6-9.4-0.7-18.9,0-28.3c1.2-15.1-6.4-26.4-14.8-37.4c-4-5.3-11.1-5.9-14.9-0.5
		c-6,8.5-11.4,17.5-15.8,26.8c-5.7,12-10.5,24.4-14.9,37c-3.5,9.7-5.8,19.8-8.8,30.5c3.3-0.2,6.9-0.1,10.3-0.7
		c2.5-0.5,5.7-1.3,6.9-3.1c3.9-5.9,7.5-12.2,10.3-18.7c3.9-8.9,11-13.2,21.5-10.3c-5.6,1.3-11.2,2.6-17.8,4.1
		C158.5,642.6,163.6,633.5,169.6,636.2z M326.9,615.5c-0.4-0.7-0.8-1.4-1.1-2.1c-3.8-8.3-7.4-16.7-11.6-24.7
		c-1.9-3.7-5.8-6.5-7.6-10.3c-3-6.7-7.1-11.6-14.3-14.2c-5.9-2.1-7.6-1.4-8.2,5.2c-1.3,15.7-3.3,31.4-3.7,47.1
		c-0.3,13.7,1,27.4,1.9,41.1c0.2,3.5,2.4,3.6,4.8,1.7c10.8-8.4,16.7-19.1,15.7-33.1c-0.6-8.2-0.9-16.3-1.3-24.5
		c3.7,6.9,6.5,13.9,8.8,21.1c4.4,13.4,14,21,27.2,24.4c1.6,0.4,4.7-0.6,5.3-1.9c1.7-3.5,3-7.4,3.7-11.3c3-17.7,2.5-35.4,0.5-53.1
		c-0.8-7.2-2.7-14.2-4.5-21.2c-1.3-5.2-6.3-2.1-9.2-3.8c-1,1.7-2.6,3.2-2.9,5C327,578.8,324.9,596.9,326.9,615.5z M233.4,626.7
		c0.6,0.1,1.2,0.2,1.9,0.2c0.3,3.9,0.9,7.8,0.7,11.6c-0.5,11.7,7.9,20.8,19.8,19.1c5.5-0.8,8.9-7.1,6.3-12.1
		c-3.4-6.5-6.6-13.2-10.1-19.7c-1.8-3.4-0.3-5.1,2.4-6.8c7.8-4.8,10.6-12.4,11.4-21c0.9-9.7-4.6-16.6-11.6-21.9
		c-6.6-5-14.2-8.7-21.2-12.9c-2.7,4.1-2.7,4.1-8.2,2.2c-4.7-1.6-11,1.4-11.1,5.6c-0.2,4.9,0.3,9.9,0.4,14.8
		c0.2,9.7,1.3,19.6,0.2,29.2c-1.5,12.9-4.9,25.6-7.3,38.4c-0.3,1.4,0.5,3,0.8,4.5c1.5-0.3,3.1-0.5,4.6-1c1.9-0.7,3.7-1.6,4.4-2
		c2.2,1.6,3.4,3.1,4.5,3c1.3-0.1,3.2-1.3,3.7-2.5c1.4-3.4,2.1-6.9,3.1-10.4C229.7,638.9,231.6,632.8,233.4,626.7z M710.5,608.7
		c-0.7-5.3-0.3-10.5-2-15c-9.9-26.7-28.6-43.5-56.7-49.3c-2.4-0.5-6-1.4-7.2-0.2c-2.4,2.5-4.6,1.5-7,1.2c-2.8-0.3-4,1-3.4,3.9
		c1.6,7.9,2.4,16.1,4.9,23.8c5.7,17.6,12.3,35,18.5,52.4c1.1,3.1,2.4,6.2,3.9,9.2c1.3,2.6,3.1,4.5,6.7,3.6c2.4-0.6,5.8-1.4,7.5-0.2
		c3.2,2.3,5.7,1.3,8.3,0c3.7-1.8,7.3-3.9,10.7-6.1C703.5,626.4,707,617.5,710.5,608.7z M422.6,641.1c-4.7-1.8-8.6-3.5-12.7-4.7
		c-8.1-2.3-15.7,0.8-23.5,2.4c-2.3,0.5-4.6,0.6-6.6,0.9c1.5-9.6,2.8-18.4,4.1-26.9c11.3-1.4,22.6-2.6,33.9-4.4
		c1.7-0.3,3.7-2.6,4.3-4.3c0.9-3-4.2-10.2-7.3-10.7c-4.4-0.7-9-1.8-13.3-1.2c-6.6,0.9-13,3.1-20.4,4.9c0-4.6,0.3-9.5-0.1-14.4
		c-0.3-3.7,1.4-4.9,4.6-4.6c8.3,0.8,16.4,0.8,24.6-1.5c4.6-1.3,8-2.6,8.8-7.4c-1.8-1.9-3.1-4.7-5-5.3c-7.1-2.2-14.3-4.3-21.6-5.3
		c-7-0.9-14.1-0.3-21.2-0.2c-5,0-7,2.6-8,7.6c-2.9,13.8-2.3,27.7-1.8,41.7c0.2,4.6-0.4,9.3,0.2,13.9c1.3,9.8,2.9,19.6,4.9,29.3
		c0.5,2.1,3.1,5,5.2,5.4c12,2.1,23.8-0.1,35.3-3.5C413.4,651,418.6,647.4,422.6,641.1z M469.4,607.8c-0.2,0.7-0.4,1.3-0.6,1.9
		c2.5,1,5,2.4,7.6,2.8c7.2,1.1,8.5,1.9,7.4,9.1c-1.7,11-6,18.5-19.9,12.6c-1.7-0.7-4.1-1.9-4.4-3.3c-1.2-6-2.7-12.2-2.3-18.2
		c0.5-8.9,2.9-17.7,3.8-26.6c0.5-5.2,1.2-10.1,4.9-14c1.7-1.7,4.7-4.6,5.7-4.1c2.6,1.3,5.4,3.8,6.4,6.4c1.6,4.3,0.8,9.1,7.1,10.9
		c3.6,1,5.4,1.2,6.1-2.8c1-5.6-0.9-10.4-3.3-15.2c-6.9-13.7-17-17.4-30.3-11c-9.2,4.5-13.7,13.3-18.2,21.6
		c-7.9,14.9-3.9,30.5-1.3,45.8c0.8,4.7,2.8,9.9,5.9,13.4c12,13.4,29.4,18,47,10.3c10.9-4.8,10.5-16.4,14.9-25
		c0.4-0.8,0.9-1.8,0.8-2.7c-0.4-6.8-5.1-12-11.7-13.9C486.2,603.3,477.7,604.7,469.4,607.8z M608.9,604.2c2.5,2.1,4.8,3.4,6.1,5.3
		c3.3,5,6.3,10.2,9.1,15.5c5.3,10.3,13.3,15.9,25.1,15.1c1.2-0.1,2.4-0.6,3.6-0.9c-0.6-1.2-1-2.7-1.9-3.7c-3.2-4-7-7.5-9.8-11.8
		c-5.7-8.7-10.9-17.7-16.3-26.8c9.1-13.4,6.2-27.7-7.6-36.6c-1.8-1.2-3.8-2.3-5.3-3.8c-7.9-7.8-18-9.5-28.3-10.5
		c-2.7-0.2-5.6,1.2-8.2,2.4c-1.5,0.7-2.5,2.3-3.4,3.3c4.3,16.8,8.4,33.6,12.9,50.4c1.9,7,3.9,14.1,6.7,20.8
		c2.4,5.9,5.9,11.4,9.3,16.8c0.8,1.3,3,1.8,4.6,2.7c1.2-2.5,3.2-5,3.3-7.5C609.1,625.3,608.9,615.4,608.9,604.2z M579.7,641.5
		c5.7-10.1-1.3-15.4-5.2-21.7c-1.3-2.1-3.4-3.9-4.2-6.1c-3.9-10.4-8.6-20.7-10.8-31.4c-2.6-12.7-10.8-20.1-20.3-27
		c-0.9-0.7-2.5-1-3.7-0.8c-2.2,0.2-4.4,0.7-6.5,1.5c-1.8,0.7-4.1,1.8-4.8,3.3c-5.6,12.1-8.1,25-7.4,38.2c0.8,15.5,2.7,31,4.2,46.5
		c0.2,1.6,1.2,3.2,1.8,4.8c1.5-0.8,3-1.7,4.8-2.7c4.4,2.9,5.5,2.2,6.2-3.6c1.1-8.7,2.4-17.3,3.6-25c4.5-1.3,8-2.5,11.7-3.2
		c1.5-0.3,3.7-0.1,4.6,0.9c5.8,6.3,11.2,13,17.1,19.3C573.4,637.3,576.7,639.2,579.7,641.5z M487.2,487.6c0.6,2.2,1,3.1,1.1,4
		c0.6,5.1,0.6,10.4,1.9,15.3c2.1,7.8,1.2,17.6,11.7,20.6c0.1,0,0.2,0.4,0.3,0.4c1.3,0.3,3,1.2,4,0.7c1-0.5,1.6-2.2,1.9-3.6
		c0.6-2.4,0.9-4.8,1.4-7.3c2.2-10.5,5.7-20.9,1.9-31.8c-1.2-3.5-1-7.5-1.5-11.3c-1-8.3-1.1-16.3-9.6-22.3c-4.6-3.2-7.7-3.1-12.3-2.8
		c4.6,8.2,3.3,16.4,0.1,28.7c-3.9,0.8-7.4,1.7-11,2.3c-3,0.5-4.9-0.2-5.4-3.9c-1-8-3-15.7-8.1-22.2c-1.7-2.2-3.4-4.4-6.6-2.8
		c-2.9,1.4-4.3,3.6-4,7.1c0.6,8.4,0.7,16.9,1.3,25.4c0.9,12.4,1.7,24.8,3.4,37c0.5,3.5,3.8,6.8,6.2,9.9c0.5,0.6,3.3,0.5,4-0.2
		c3.3-3.8,7.3-7.5,7-13.2c-0.2-4-0.7-7.9-0.8-11.9c-0.1-4,0-8,0-11.7C479,492.7,484.9,495.8,487.2,487.6z M323.5,525.2
		c-0.3-4-0.2-7.7-0.8-11.4c-1.5-9.3-3-18.7-5-27.9c-1.5-6.9-3.6-13.8-5.8-20.5c-3.9-11.8-21.6-11.6-28.2-5.4
		c-3.4,3.2-6.2,7.4-8.3,11.6c-3.7,7.2-6.2,15-10,22.1c-2.6,4.8-3.8,9.4-3.2,14.7c0.3,2.5,0.7,5,0.6,7.5c-0.3,7,0.3,7.6,8.6,9.4
		c4.3,0.9,6.6,0,7-5.2c0.7-8.7,2.8-16.7,13.8-17.8c3.1-0.3,6-1.9,10.3-3.4c-2.5,8.5,0.6,14.4,4,20.1
		C310.6,525.8,316.6,527.9,323.5,525.2z M359.2,504.9c3.6,5.5,6.1,10.3,9.5,14.5c2.7,3.3,6.3,5.9,9.7,8.5c1.5,1.1,3.7,1.4,5.5,2.1
		c0.7-2.3,2.5-5,1.8-6.8c-3.3-9.4-6.9-18.6-11.1-27.6c-1.5-3.3-1.7-4.6,1.8-5.9c1.4-0.5,2.9-1.7,3.7-2.9c7.1-12.5-1.1-28-11.5-32.7
		c-8.9-4-18.5-3.8-28-2.3c-3.2,0.5-4,2.4-3.3,5.7c0.7,3.1,0.9,6.4,0.7,9.7c-0.4,10.1-1.6,20.2-1.4,30.3c0.2,8.2,2,16.4,3.2,24.6
		c0.3,1.9,1.3,5,2.2,5.1c2.5,0.2,5.8-0.1,7.6-1.6C355.7,520.3,359.5,513.8,359.2,504.9z M446.6,528c-1.5-8.8-3.9-16.9-3.9-24.9
		c0-15.9-5.3-29.5-15-41.7c-5.3-6.7-14.9-9.4-22.9-6.6c-1.4,0.5-2.8,2.5-3.3,4.1c-1.2,4.3-2.1,8.7-2.9,13.1
		c-1.3,7.3-2.6,14.7-3.5,22.1c-1.2,10.4-1.7,20.8-3.2,31.1c-0.5,3.5,1.2,3.9,3.4,4.7c2.6,1,4.1,0.3,5-2.4c1.6-4.7,3.3-9.4,5-14
		c1.6-4.3,3.5-8.1,9.4-7.2c2.9,0.5,6,0.2,9,0c3.1-0.2,5,0.9,6.2,3.7c2.2,5,4.3,10.1,6.9,14.9C439.8,530.6,441.5,530.8,446.6,528z"/>
	<path class="st5" d="M431.3,386.8c-9.5,0.1-17.5,4.6-26.3,1.2C412.5,383.3,425.5,382.3,431.3,386.8z"/>
	<path class="st5" d="M395,397.2c1.2-3,1.8-4.3,2-4.7c8.7,0,16.8,0,24.9,0c0,0.4,0.1,0.9,0.1,1.3C413.4,394.9,404.9,396,395,397.2z"
		/>
	<path class="st4" d="M179.9,129.2c2.7-10.9-2.8-19.3-10-25.2c1.8,5.5,5.7,12.2,6.3,18.1c0.8,7.7-10.8,12.8-16.9,15.7
		C171.6,140.1,178.8,133.9,179.9,129.2z"/>
	<path class="st4" d="M157.8,62.6c-6,2.3-8.4,8.1-4.5,13.2c9.1,11.9,19.1,23.3,28.7,34.8c2.9,3.9,2.2,0.4,1.6-1.3
		C178,97.9,166.4,91.3,160.4,80c-3.7-7-1.3-12.9,5.5-16.4c3.9-2.1,8.7-2.4,12.5-4.5l-8.4,0.2C167.8,59.4,161.8,61.2,157.8,62.6z"/>
	<path class="st4" d="M143.9,55.5c-1.3,1.9-2.3,8.4-0.1,14.8c0.5,1.8,1.2,3.6,2,5c2.1,4.8,4.7,8.7,7,9.8c-0.3-0.8-3.7-7.1-4-7.7
		c-6.5-11.1-3.5-19.5,8.7-22.8c6.5-1.8,18.9-0.5,28.1-0.8l-14.3-6.4C158.4,41.5,148,49.3,143.9,55.5z"/>
	<path class="st3" d="M61.2,255c-5.9-2.8-11.2,6.3-17.6-1.8c6.6-1.4,12.2-2.7,17.9-3.9c-10.4-3-17.6,1.3-21.6,10.1
		c-2.9,6.5-6.6,12.7-10.6,18.6c-1.2,1.8-4.5,2.6-7,3.1c-3.4,0.6-7,0.4-10.3,0.6c3.2-10.6,5.6-20.7,9.2-30.4
		c4.6-12.5,9.5-24.9,15.3-36.8c4.5-9.3,10.1-18.3,16.1-26.6c3.9-5.3,10.9-4.7,14.9,0.7c8.3,11.1,15.7,22.5,14.4,37.6
		c-0.8,9.4-0.8,18.9-0.3,28.3c0.2,4.1,1.9,8.3,3.8,12c1.9,3.8,0.9,9.3-2.9,11.1c-9.9,4.7-17.5,0.8-19.5-10.1
		C62.2,263.3,61.7,259,61.2,255z M47,245.9c4.8-0.9,8.8-1.6,12.8-2.5c0.7-0.2,1.6-1.3,1.7-2c1.2-10.9,3-21.8-2.8-32.5
		C54.9,221,51.2,232.8,47,245.9z M77.8,273.5c0.5,0,1,0,1.5-0.1c-0.2-1.8-0.1-3.6-0.5-5.3c-0.9-4.4-2.7-8.8-2.9-13.3
		c-0.5-12.7-0.1-25.5-0.6-38.2c-0.1-3.6-1.9-7.1-2.9-10.7C69.2,222.3,73.6,268.1,77.8,273.5z M49.2,201.7
		c-11.5,19.8-19.8,40.9-26.6,62.7C33,244.1,43.2,223.7,49.2,201.7z M24,275.1c0.5,0.2,0.9,0.4,1.4,0.7c9-12.6,13.6-27.3,20-41.1
		c-0.6-0.3-1.2-0.6-1.7-0.8C37.1,247.6,30.5,261.4,24,275.1z"/>
	<path class="st3" d="M218.7,236c-1.8-18.6,0.5-36.7,4.1-54.6c0.4-1.8,1.9-3.3,3-5c2.9,1.8,8-1.3,9.2,3.9c1.6,7,3.5,14.1,4.2,21.3
		c1.8,17.7,2.1,35.5-1.1,53.1c-0.7,3.9-2,7.8-3.8,11.3c-0.6,1.2-3.7,2.2-5.3,1.8c-13.2-3.5-22.7-11.2-26.9-24.7
		c-2.3-7.2-5-14.2-8.6-21.2c0.3,8.2,0.6,16.3,1.1,24.5c0.8,14-5.2,24.7-16.1,33c-2.5,1.9-4.7,1.8-4.8-1.7
		c-0.7-13.7-1.9-27.5-1.4-41.2c0.6-15.7,2.8-31.4,4.2-47.1c0.6-6.6,2.4-7.3,8.2-5.1c7.2,2.7,11.2,7.6,14.1,14.4
		c1.7,3.8,5.5,6.6,7.4,10.3c4.1,8.1,7.6,16.6,11.4,24.9C218,234.6,218.4,235.3,218.7,236z M177,252.6c0.5,0.1,1,0.2,1.4,0.3
		c0.8-2.1,1.8-4.2,2.3-6.4c2.2-10.4,4.2-20.8,6.4-31.2c2-9.6-0.4-18.8-5.9-23c-1.8,15.4-3.7,31-5.2,46.6
		C175.7,243.4,176.7,248.1,177,252.6z M232.8,186.7c-2.5,6.2-0.9,53.1,1.8,56.7C237.5,224.1,235.1,205.4,232.8,186.7z M228.9,245.2
		c-0.9-18.5-1.8-37.1-2.8-55.6C223.4,208.3,219.2,227.1,228.9,245.2z M187.1,188.7c-0.5,0.3-1,0.7-1.5,1
		c8.6,14.9,17.1,29.7,25.7,44.6c0.4-0.3,0.9-0.5,1.3-0.8C206.5,217.3,198,202.3,187.1,188.7z M181.4,268c0.6,0.1,1.2,0.2,1.9,0.3
		c9.9-11.8,5.6-25.9,5.4-39.4C186.3,242,183.9,255,181.4,268z M228.8,260.3c-4.9-4.3-10.4-8.1-14.5-13c-4.2-5.1-7-11.3-10.4-17
		C206.8,249.5,216,260.8,228.8,260.3z"/>
	<path class="st3" d="M125.1,246.2c-1.9,6.1-3.8,12.2-5.6,18.3c-1.1,3.5-1.9,7.1-3.2,10.4c-0.5,1.2-2.4,2.4-3.7,2.5
		c-1.1,0.1-2.2-1.5-4.4-3.1c-0.7,0.3-2.5,1.2-4.4,1.9c-1.5,0.5-3,0.6-4.6,1c-0.3-1.5-1.1-3.1-0.8-4.5c2.6-12.8,6.1-25.4,7.7-38.3
		c1.2-9.6,0.2-19.5,0.1-29.2c0-5-0.4-9.9-0.2-14.8c0.2-4.1,6.5-7.1,11.2-5.4c5.5,1.9,5.5,1.9,8.3-2.1c7,4.3,14.6,8.1,21.1,13.2
		c7,5.4,12.4,12.3,11.3,22c-0.9,8.5-3.8,16.2-11.6,20.9c-2.7,1.6-4.3,3.3-2.5,6.7c3.4,6.5,6.5,13.3,9.9,19.8c2.6,5-1,11.3-6.5,12.1
		c-11.9,1.6-20.3-7.6-19.6-19.3c0.2-3.9-0.4-7.8-0.6-11.6C126.3,246.3,125.7,246.3,125.1,246.2z M130.2,235.8
		c5.9,0.7,10.4-2.9,11.1-9.2c0.2-2.5,0.7-4.9,1.3-7.3c2.1-7.9-4.4-21.3-11.9-24.6C130.5,208.3,130.4,222,130.2,235.8z M110.3,270.9
		c0.3,0.1,0.6,0.2,0.9,0.3c4.3-12.9,8.8-25.7,12.8-38.6c1.3-4,1.8-8.4,1.9-12.7c0.2-5.1-0.3-10.3-0.8-15.4
		c-0.4-4.3-1.2-8.5-2.2-12.6c-0.2-1-1.9-1.7-2.9-2.5c-0.6,1.3-1.4,2.5-1.8,3.9c-0.2,0.7,0.1,1.7,0.3,2.4c3.3,11,3.8,22.3,1.9,33.4
		c-2,11.6-5.7,22.8-8.6,34.2C111.1,265.7,110.8,268.3,110.3,270.9z M105.5,260.3c10.5-28.6,12.9-56.4,5.6-63.8
		C115.8,218.5,112.8,239.6,105.5,260.3z M148.2,228.7c5.7-7.2,4.8-19.2-1.7-23.5C153.2,212.5,146.5,220.7,148.2,228.7z M134.5,249.8
		c-2.4,11.3-1,16.3,4.7,19.4C137.7,263,136.2,256.7,134.5,249.8z"/>
	<path class="st3" d="M604.3,240.5c-3.6,8.7-7.2,17.6-15.9,23c-3.5,2.2-7.1,4.2-10.8,6c-2.6,1.2-5.2,2.2-8.3-0.1
		c-1.6-1.2-5-0.4-7.5,0.1c-3.6,0.9-5.4-1-6.7-3.7c-1.5-3-2.7-6.1-3.8-9.2c-6.1-17.5-12.4-34.9-18-52.6c-2.4-7.7-3.1-15.9-4.7-23.8
		c-0.6-2.9,0.6-4.2,3.4-3.9c2.5,0.3,4.6,1.4,7-1.1c1.1-1.2,4.8-0.2,7.1,0.3c28,6.1,46.6,23.1,56.2,49.9
		C604.1,230,603.7,235.2,604.3,240.5z M563.2,256.2c5.8-4.6,10.6-8.5,15.5-12.4c10.9-8.7,12-18,2.7-28.5
		c-5.4-6.1-11.2-11.8-17.4-17.1c-4.2-3.7-9.3-6.4-13.4-9.2c1.6,8.9,3.1,17.6,4.8,26.3c0.1,0.6,1.1,1.1,1.5,1.7
		c1.3,2.2,3.2,4.2,3.7,6.6c1,4.9,1.2,9.9,1.6,14.9C562.6,244.2,562.9,250.1,563.2,256.2z M550.2,229.1c0.1-16.6,1.5-33.5-10.9-46.2
		C542.8,197.8,546.4,213.3,550.2,229.1z M595.1,224.3c0.5-0.4,1-0.9,1.5-1.3c-3.5-6.8-4.1-15.4-13.5-18.4c-4.3-1.4-8.2-4.3-10.4-5.6
		C579.4,206.5,587.2,215.4,595.1,224.3z M581.7,198.9c-12-12.1-25.8-19.3-40.2-20.7C553.6,184.4,567.3,191.5,581.7,198.9z
		 M574.4,265.2c8.1-3.4,15.2-8,18.9-16.9c-1.9,0.4-3.8,1-5,2.3C583.6,255.4,579,260.3,574.4,265.2z M594.8,230.2
		c-0.1,5.4-0.1,10.3-0.2,15.5C599.2,239.8,599.3,234.2,594.8,230.2z M536.8,191.4c-0.4,0.2-0.9,0.4-1.3,0.6
		c1.6,6.9,3.3,13.8,4.9,20.7c0.4-0.1,0.9-0.2,1.3-0.3C540,205.3,538.4,198.4,536.8,191.4z M569.5,256.6c0.9,0.9,1.8,1.8,2.7,2.7
		c2.9-3,5.9-6,8.8-9c-0.7-0.7-1.4-1.4-2.1-2.1C575.7,250.9,572.6,253.7,569.5,256.6z M557,242c-0.5,0-1,0.1-1.4,0.1
		c0.2,4.7,0.4,9.4,0.5,14.1c0.5,0,1.1-0.1,1.6-0.1C557.4,251.4,557.2,246.7,557,242z"/>
	<path class="st3" d="M314.1,262.7c-4,6.2-9.3,9.8-15.8,11.6c-11.6,3.3-23.4,5.4-35.3,3.1c-2-0.4-4.7-3.3-5.1-5.4
		c-1.9-9.7-3.4-19.5-4.6-29.3c-0.6-4.6,0.1-9.3-0.1-13.9c-0.4-13.9-0.9-27.8,2.2-41.6c1.1-5,3.1-7.6,8.1-7.5
		c7.1,0,14.2-0.5,21.2,0.5c7.3,1,14.5,3.2,21.6,5.5c2,0.6,3.2,3.4,5,5.3c-0.8,4.8-4.2,6-8.9,7.3c-8.2,2.3-16.3,2.1-24.6,1.2
		c-3.2-0.4-4.9,0.8-4.6,4.5c0.3,4.9,0,9.8-0.1,14.4c7.4-1.8,13.8-3.9,20.4-4.7c4.3-0.5,8.9,0.6,13.3,1.3c3.2,0.6,8.1,7.8,7.2,10.8
		c-0.5,1.7-2.6,4-4.3,4.3c-11.3,1.6-22.7,2.7-34,4c-1.4,8.5-2.8,17.2-4.4,26.8c2-0.3,4.4-0.4,6.6-0.8c7.8-1.5,15.5-4.6,23.5-2.2
		C305.6,259,309.5,260.9,314.1,262.7z M264.7,185c-0.5,0.2-1,0.3-1.5,0.5c0.5,25.5,0.9,51,1.4,76.5c3.7-10.7,6.4-21.2,4.9-32.7
		c-1.6-12.3-1.5-24.8-2.3-37.2C266.9,189.8,265.5,187.4,264.7,185z M302.6,188.6c-10.6-2.3-20.8-8.3-32.8-3.8
		c0.7,1.3,1.2,3.3,1.8,3.4C281.9,188.5,292.3,188.5,302.6,188.6z M308.5,225.2c0-0.5-0.1-1-0.1-1.4c-5.5-1.8-11.1-0.2-16.7,0.3
		c-5.7,0.5-11.4,0.9-19,1.4c2.1,1.7,3.4,3.5,4.6,3.5c4.8,0,9.6-0.5,14.3-1.1C297.3,227.2,302.9,226.1,308.5,225.2z M302.7,264.8
		c-5.8-4.6-18.7-3.7-26.3,0.9C285.2,269.2,293.2,264.8,302.7,264.8z M272.4,192.3c0.8,4.6,20.8,5.7,29.7,0.3
		C291.4,192.5,282,192.4,272.4,192.3z M258.5,204.4c-0.1,13.2-0.3,26.5-0.4,39.8c0.6-13.2,0.8-26.3,0.9-39.5
		C258.9,204.5,258.4,204.4,258.5,204.4z M266.3,274.8c10-1.1,18.5-2.1,27-3.1c0-0.4-0.1-0.9-0.1-1.3c-8.1-0.1-16.2-0.2-24.9-0.3
		C268.2,270.5,267.6,271.9,266.3,274.8z M284.1,218.6c0,0.8,0.1,1.5,0.1,2.3c5.5-0.8,11.1-1.5,16.6-2.3c0-0.5-0.1-0.9-0.1-1.4
		C295.2,217.7,289.7,218.2,284.1,218.6z"/>
	<path class="st3" d="M361.3,232.9c8.4-3.1,16.8-4.3,25.7-1.7c6.6,2,11.2,7.2,11.5,14c0,0.9-0.4,1.9-0.9,2.7
		c-4.5,8.6-4.2,20.2-15.2,24.9c-17.7,7.5-35.1,2.8-46.9-10.8c-3.1-3.5-5-8.7-5.8-13.4c-2.4-15.3-6.3-31,1.8-45.8
		c4.6-8.3,9.1-17.1,18.4-21.4c13.4-6.3,23.5-2.5,30.2,11.3c2.4,4.8,4.2,9.7,3.1,15.3c-0.8,4-2.6,3.8-6.1,2.7
		c-6.2-1.8-5.4-6.7-6.9-11c-1-2.7-3.8-5.2-6.4-6.5c-1-0.5-4,2.3-5.7,4c-3.7,3.8-4.5,8.7-5.1,13.9c-0.9,8.9-3.4,17.6-4.1,26.5
		c-0.4,6,1,12.2,2.1,18.2c0.3,1.4,2.7,2.6,4.3,3.3c13.9,6.1,18.2-1.4,20-12.4c1.2-7.2-0.2-8-7.3-9.2c-2.6-0.4-5-1.9-7.6-2.9
		C360.8,234.2,361,233.6,361.3,232.9z M369.9,186.7c0.3-0.4,0.5-0.9,0.8-1.3c-2-1-4.2-2.9-6.1-2.8c-4.3,0.4-8.6,1.6-12.8,2.8
		c-4,1.2-2.1,4.7-2.6,7.3c-2,9.1-4.1,18.2-6.3,27.3c-0.8,3.5-1.9,6.9-3.2,11.6c-1.1-2.2-2.1-3.2-2-4.1c0.9-9.8,1.9-19.5,2.8-28.8
		c-12.3,9.4-8.9,39.9-3.8,55.6c-0.4-4.6-0.6-8.1-1-11.6c-0.4-3.6-1.6-7.4,3.7-10.1c1,6.8,1.8,12.8,2.7,18.7c0.6,0.1,1.1,0.1,1.7,0.2
		c0.3-1.7,0.8-3.3,0.8-5c0-4.8-0.8-9.6-0.3-14.3c1.7-13.3,4-26.5,5.9-39.8c0.8-5.5,1.5-5.9,5.7-3.4
		C359.8,183.5,365.2,186.8,369.9,186.7z M343.2,255.6c1.3,8.7,10.8,17.2,20.2,17.1c14.1-0.1,19-2.6,19.6-15.7
		c0.1-1.8,0.7-3.6,0.6-5.4c-0.1-2.5-0.8-4.9-1.2-7.3c-2.3,10.9-5.3,17.7-10.3,19.4C361.1,267.2,351.9,263.6,343.2,255.6z
		 M380.1,234.3c2.2,2.1,4.9,3.9,6.5,6.4c1.7,2.6,2.2,5.9,3.3,9.1C395.8,239.9,390.3,233.4,380.1,234.3z"/>
	<path class="st3" d="M500.8,233.8c-0.1,11.2,0,21.1-0.5,30.9c-0.1,2.5-2.2,5-3.4,7.5c-1.5-0.9-3.7-1.4-4.5-2.7
		c-3.3-5.5-6.7-11-9.1-16.9c-2.7-6.7-4.6-13.8-6.4-20.9c-4.3-16.8-8.3-33.7-12.3-50.5c0.9-0.9,2-2.6,3.4-3.2
		c2.6-1.1,5.6-2.6,8.2-2.3c10.3,1,20.4,2.9,28.2,10.8c1.5,1.5,3.4,2.6,5.2,3.8c13.7,9,16.5,23.3,7.2,36.6c5.4,9.1,10.4,18.2,16,26.9
		c2.7,4.3,6.5,7.9,9.7,11.9c0.8,1.1,1.2,2.5,1.8,3.7c-1.2,0.3-2.4,0.8-3.6,0.8c-11.9,0.6-19.8-5.1-24.9-15.4
		c-2.7-5.3-5.7-10.6-8.9-15.6C505.6,237.2,503.2,235.9,500.8,233.8z M499.5,229.6c1.5-0.8,2.9-1.4,4.1-2.2c4.4-3,8.2-6.5,8.1-12.3
		c-0.6-18.2-10.1-28.6-29-30.3C494.8,197.3,492.7,215,499.5,229.6z M472,187.8c1,6.8,2,13.4,3.1,20.1c0.3,2.1,0.7,4.3,1.3,6.3
		c3.1,11.3,6.1,22.7,9.5,34c0.9,3,3,5.7,4.5,8.5c1-8.4-5.3-33.2-8.7-40.1c-1.2-2.5-2-5.3-2.3-8C478.7,201,476.6,194,472,187.8z
		 M494,239.7c0.3-0.1,0.7-0.2,1-0.3c-0.3-2.3-0.4-4.6-1-6.8c-1.8-7.8-3.5-15.6-5.7-23.2c-1.9-6.6-4.1-13.2-6.9-19.5
		c-1.3-2.9-4.5-4.9-6.8-7.3c-0.4,0.3-0.7,0.7-1.1,1c6.8,8,11,17,10.8,27.7c0,1.8,1.4,3.7,2,5.5c2.2,6,4.3,12.1,6.4,18.2
		C493.3,236.5,493.6,238.1,494,239.7z M528.3,265c0.6-0.5,1.3-1,1.9-1.5c-3.5-4.7-7-9.5-10.4-14.2c-0.6,0.4-1.2,0.8-1.7,1.3
		C521.5,255.4,524.9,260.2,528.3,265z"/>
	<path class="st3" d="M468,270c-2.8-2.6-5.9-4.8-8.2-7.7c-5.3-6.8-10.1-13.9-15.3-20.8c-0.8-1-3-1.4-4.5-1.3
		c-3.7,0.4-7.4,1.3-11.9,2.1c-1.8,7.6-3.9,16-5.8,24.6c-1.2,5.7-2.4,6.2-6.5,3c-1.8,0.8-3.4,1.5-5,2.2c-0.5-1.6-1.4-3.3-1.4-4.9
		c-0.2-15.6-0.7-31.2-0.1-46.7c0.5-13.2,4.1-25.9,10.8-37.4c0.8-1.5,3.2-2.3,5.1-2.8c2.1-0.7,4.4-0.9,6.6-1c1.2,0,2.7,0.4,3.6,1.2
		c8.8,7.8,16.3,15.9,17.8,28.7c1.3,10.9,5,21.6,7.9,32.3c0.6,2.3,2.5,4.2,3.6,6.4C468.1,254.6,474.6,260.5,468,270z M416.5,262.5
		c5.2-6.7,15.8-68.2,12.9-75.2C423.4,196.6,414.4,247.3,416.5,262.5z M431.3,230.9c2.6-0.7,5.5-1.2,8.2-2.2c0.8-0.3,1.8-2.1,1.6-3
		c-1.8-7.4-3.8-14.8-5.8-22.2c-0.5,0-1.1,0.1-1.6,0.1C432.9,212.4,432.2,221.2,431.3,230.9z M454.2,248.6c0.7-0.4,1.3-0.7,1.9-1.1
		c-3.6-10.5-7.2-20.9-10.8-31.4c-1.1,7,4.1,13,1.4,20c-0.1,0.4,0.2,1,0.4,1.4C449.4,241.1,451.8,244.8,454.2,248.6z M438.3,189.9
		c2.8,6.3,5.6,12.6,8.5,18.9C447.7,200.9,445.1,194.5,438.3,189.9z M442.3,235.7c0-0.6,0-1.1-0.1-1.7c-4.2,0.2-8.4,0.3-12.5,0.7
		c-0.3,0-0.4,1.6-0.8,3.3C433.8,237.1,438.1,236.4,442.3,235.7z M418.6,203.3c-0.5-0.1-1-0.3-1.5-0.4c-1.1,5.2-2.1,10.4-3.2,15.7
		c0.5,0.1,1.1,0.2,1.6,0.3C416.5,213.7,417.5,208.5,418.6,203.3z"/>
	<path class="st3" d="M443,112.1c-2.3,8.2-8.2,5.1-13,6.4c0,3.7-0.1,7.7,0,11.7c0.1,4,0.6,7.9,0.8,11.9c0.3,5.8-3.6,9.4-7,13.2
		c-0.6,0.7-3.5,0.9-4,0.2c-2.4-3.1-5.7-6.3-6.2-9.9c-1.7-12.3-2.5-24.7-3.4-37c-0.6-8.4-0.6-16.9-1.3-25.4c-0.3-3.6,1.1-5.7,4-7.1
		c3.2-1.6,4.9,0.7,6.6,2.8c5.1,6.5,7.2,14.2,8.1,22.2c0.4,3.7,2.4,4.5,5.4,3.9c3.6-0.6,7.1-1.5,11-2.3c3.1-12.3,4.5-20.5-0.1-28.7
		c4.6-0.3,7.7-0.5,12.3,2.8c8.4,6,8.6,13.9,9.6,22.3c0.4,3.8,0.3,7.8,1.5,11.3c3.8,11,0.3,21.3-1.9,31.8c-0.5,2.4-0.8,4.9-1.4,7.3
		c-0.3,1.3-0.9,3.1-1.9,3.6c-1,0.5-2.6-0.4-4-0.7c-0.1,0-0.2-0.4-0.3-0.4c-10.6-3.1-9.7-12.8-11.7-20.6c-1.3-4.9-1.3-10.2-1.9-15.3
		C444.1,115.2,443.7,114.3,443,112.1z M458.5,83.9c-1.6,5.7-3.1,10.4,0.4,15.3c1,1.4,1.1,3.8,1,5.8c-0.4,9.4-1,18.8-1.4,28.2
		c-0.2,3.7,0,7.3,0,11c0.6,0.1,1.2,0.1,1.7,0.2c1.4-7,4.1-14,3.9-21c-0.4-12.2-2.6-24.3-4.1-36.5C459.9,86.2,459.3,85.5,458.5,83.9z
		 M422.8,99.5c-0.6,15.8-1.3,32.9-2,49.9C427.4,144.3,427.5,116.4,422.8,99.5z M452.2,93.4c-4.9,11.6-3.8,35.6,1.3,42
		c-0.1-6.9-0.9-13.8-1.2-20.8C452,107.6,452.2,100.5,452.2,93.4z M415.6,126.8c3-13.8,3.3-27.8-0.5-41.5c-0.4,0-0.9,0-1.3,0.1
		C414.4,99.1,415,113,415.6,126.8z M430.1,109.2c0,0.8,0.1,1.5,0.1,2.3c4.6-0.7,9.2-1.4,13.8-2c-0.1-0.6-0.2-1.3-0.3-1.9
		C439.2,108.1,434.6,108.7,430.1,109.2z"/>
	<path class="st3" d="M279.4,151.6c-6.9,2.8-12.9,0.6-17-6.3c-3.4-5.7-6.6-11.6-4-20.1c-4.3,1.5-7.2,3.1-10.3,3.4
		c-11,1.2-13.2,9.1-13.8,17.8c-0.4,5.2-2.7,6.1-7,5.2c-8.3-1.8-8.8-2.4-8.6-9.4c0.1-2.5-0.3-5-0.6-7.5c-0.7-5.3,0.6-9.9,3.2-14.7
		c3.8-7.1,6.3-14.9,10-22.1c2.1-4.2,4.9-8.4,8.3-11.6c6.6-6.2,24.3-6.3,28.2,5.4c2.2,6.8,4.3,13.6,5.8,20.5c2,9.2,3.5,18.6,5,27.9
		C279.1,143.9,279.1,147.6,279.4,151.6z M257.4,85.2c-0.1,0.3-0.2,0.6-0.3,0.9c2.3,6.8,4.9,13.4,6.7,20.3
		c2.7,10.2,4.8,20.5,7.1,30.8c0.4,1.7,0.5,3.4,0.7,5.1c-1.7,0.1-3.4,0.3-6.1,0.5c2.6,2.5,4.8,4.6,7.1,6.8c0.6-0.3,1.2-0.6,1.8-1
		c-1.4-9-2.4-18.1-4.2-27.1c-2-9.9-4.3-19.7-7.1-29.3C262.4,89.6,259.4,87.5,257.4,85.2z M238.7,92.3c-1.5,3-3.2,6-4.6,9.1
		c-3.1,6.9-5.6,14.1-9.1,20.8c-2.4,4.5-3.6,8.7-1.5,14.1C228.7,121.4,238.1,108.7,238.7,92.3z M244.7,97.1
		c-4.5,10.8-9.4,21.9-13.8,33.3c-1.7,4.5-2.5,9.4-3.6,14.1c0.5,0.1,1,0.3,1.6,0.4C232.7,128.2,244.6,114.2,244.7,97.1z M258.3,114.6
		c-2.6-5.6-5-10.7-7.9-16.8c-1.9,7.3-3.6,13.5-5.4,20.3C249.5,116.9,253.2,115.9,258.3,114.6z M257.5,120.4
		c-7.5-1.4-15.3,2.3-15.8,6.7C247.2,124.8,252.4,122.6,257.5,120.4z"/>
	<path class="st3" d="M315,129.3c0.3,8.9-3.5,15.4-9.4,20.5c-1.8,1.5-5.1,1.8-7.6,1.6c-0.9-0.1-1.9-3.2-2.2-5.1
		c-1.3-8.2-3-16.4-3.2-24.6c-0.2-10.1,1-20.2,1.4-30.3c0.1-3.2-0.1-6.5-0.7-9.6c-0.7-3.3,0.2-5.2,3.3-5.7c9.5-1.5,19.1-1.7,28,2.3
		c10.4,4.7,18.6,20.2,11.5,32.7c-0.7,1.3-2.2,2.4-3.7,2.9c-3.5,1.3-3.3,2.6-1.8,5.9c4.1,9,7.8,18.3,11.1,27.6
		c0.6,1.8-1.2,4.5-1.8,6.8c-1.9-0.7-4-0.9-5.5-2.1c-3.5-2.6-7-5.2-9.7-8.5C321.1,139.7,318.6,134.9,315,129.3z M315.3,119.8
		c8.2-1.3,13.9-8.8,12.8-16.5c-1.8-12.1-7.6-18.8-17.6-20.3C308.1,95.7,312.2,107.5,315.3,119.8z M306.5,104.3c-0.5,0-1.1,0-1.6,0
		c0,13.1,0,26.1,0,39.2C313.4,130.5,309.9,117.4,306.5,104.3z M298.3,125.5c0.6,0,1.2-0.1,1.8-0.1c0-11.9,0-23.7,0-35.6
		C297.8,101.7,295.1,113.5,298.3,125.5z M308.6,78.7c11.4,2.8,20.3,8.5,24.7,19.9C331.4,83.3,323.7,78.8,308.6,78.7z M323.2,128.9
		c0.3,7.9,4.1,13.4,10.1,17.4c0.4-0.3,0.8-0.5,1.2-0.8C330.7,139.9,327,134.4,323.2,128.9z"/>
	<path class="st3" d="M402.4,152.5c-5.1,2.7-6.8,2.5-9.8-3c-2.6-4.8-4.8-9.8-6.9-14.9c-1.2-2.8-3.1-4-6.2-3.7c-3,0.2-6,0.5-9,0
		c-5.9-0.9-7.8,2.9-9.4,7.2c-1.8,4.6-3.4,9.3-5,14c-0.9,2.6-2.4,3.3-5,2.4c-2.2-0.9-3.9-1.2-3.4-4.7c1.5-10.3,2-20.8,3.2-31.1
		c0.9-7.4,2.2-14.7,3.5-22.1c0.8-4.4,1.6-8.8,2.9-13.1c0.5-1.6,1.9-3.6,3.3-4.1c8-2.8,17.6-0.1,22.9,6.6c9.7,12.2,15,25.8,15,41.7
		C398.5,135.6,401,143.7,402.4,152.5z M377.3,84.6c-1.2,4.7-1.2,7.4,1.3,10.7c4.7,6.4,9,13.2,9.6,21.9c0.4,5.9,3.1,11.6,4.8,17.4
		C395.3,115.9,389.8,99.7,377.3,84.6z M356.2,133.6c3.1-16.3,6.3-33.7,9.6-51.4C359.7,83.4,353.8,118.3,356.2,133.6z M371.8,86.5
		c-0.6-0.1-1.2-0.1-1.7-0.2c-2.1,11.3-4.3,22.5-6.4,33.8C369.6,109.6,372.1,98.3,371.8,86.5z M368.8,122.3c4.2,0.2,7.9,0.4,12.5,0.6
		c-2.5-5-4.7-9.2-7.3-14.5C371.9,113.8,370.5,117.6,368.8,122.3z M376.9,99.3c-3.7,6.7,3.2,8.3,4.2,12.8c0.6-0.3,1.2-0.6,1.7-0.8
		C380.9,107.3,378.9,103.3,376.9,99.3z M381,127.5c0-0.4,0-0.7,0-1.1c-4.7,0-9.4,0-14.2,0c0,0.4,0,0.7,0,1.1
		C371.6,127.5,376.3,127.5,381,127.5z"/>
	<path class="st1" d="M207.1,65.3c-1.1-1.4-2.9-2.5-4.2-2.9c-2.3-0.9-4.8-2.8-7.2-3.8c0,0-16.5-7.3-22.4-8.2
		c-16.5-2.7-24.5,13.4-19.6,26.8c3.9,10.9,11.4,18.9,19.9,26.3c4.1,3.6,8.4,6.9,10.2,12.4c2.3,6.9-1.7,13.7-9,14.2
		c-10.4,0.7-18-4.2-23.7-12.6c-0.9-1.3-2.4-2.7-3.8-2.8c-4.7-0.2-3.6,10.1-3.5,12.6c0.3,7.3,4,13.2,10.3,16.9
		c9.8,5.8,24.1,10.7,35.5,7.5c10.3-2.9,14.3-17.2,14.3-26.7c0-14.2-7.2-25.2-19.2-32.9c-2.9-1.9-6.3-3.7-5.7-8.2
		c0.7-5.5,4.4-9.9,8.8-11c2.9-0.7,5.7-1.9,8.6-2.5c3.2-0.6,8.4,2.9,10.9-0.3C208.8,68.5,208.3,66.8,207.1,65.3z M189.7,120.8
		c-0.9-5.1-4.5-10.7-6.4-15.3c6.5,4.8,11.7,11.7,9.9,21.2c-0.8,4.1-6.6,9.8-17.3,8.5C181.1,132.4,190.8,127.4,189.7,120.8z
		 M150.8,126.9c6.1,4.3,12.9,10,19.3,12.7c6.8,2.9,17,1.7,27.6-4.9C189.1,156.6,154.2,146.6,150.8,126.9z M177.9,70.9
		c-5.7,3.4-7.4,8.5-3.9,14.4c5.7,9.5,16,14.5,21.4,24.1c0.6,1.4,1.4,4.4-1.3,1.2c-8.9-9.5-18-18.7-26.4-28.5
		c-3.6-4.2-1.9-9.3,3.2-11.6c3.3-1.5,8.5-3.3,10.4-3.4l7.2-0.6C185.2,68.4,181.2,69,177.9,70.9z M170,63.7
		c-10.3,3.5-12.5,10.8-6.3,20.1c0.3,0.5,3.6,5.7,3.9,6.4c-2-0.8-4.4-4.1-6.5-8.1c-0.8-1.2-1.4-2.7-1.9-4.2c-2.2-5.4-1.6-11-0.6-12.8
		c3.2-5.5,11.8-12.8,23-8.3l12.7,4.8C186.2,62.4,175.5,61.9,170,63.7z"/>
	
		<rect id="_x3C_Slice_x3E_" x="161.1" y="-160.5" transform="matrix(-1.095146e-02 0.9999 -0.9999 -1.095146e-02 450.3802 -160.4746)" class="st0" width="287" height="606"/>
</g>
<g id="Layer_2" class="st6">
</g>
</svg>
